<svg width="16" height="16" viewBox="0 0 16 16" fill="none" xmlns="http://www.w3.org/2000/svg">
<path d="M2.50133 15.6438H7.01614C7.19641 15.6438 7.34209 15.4981 7.34209 15.3178C7.34209 15.1376 7.19641 14.9919 7.01614 14.9919H2.79967L1.74438 3.08947L7.77298 3.08958L7.36203 7.72787C7.3461 7.90715 7.47835 8.06549 7.65797 8.08119C7.833 8.10105 7.99525 7.96454 8.01129 7.78524L8.45378 2.79247C8.46196 2.70125 8.4313 2.61089 8.36964 2.54346C8.3081 2.47602 8.2207 2.4375 8.12914 2.4375H1.38821C1.29699 2.4375 1.20958 2.47591 1.14804 2.54346C1.08649 2.61089 1.05583 2.70124 1.06358 2.79247L2.17683 15.3466C2.19189 15.5148 2.33266 15.6439 2.50146 15.6439L2.50133 15.6438Z" fill="#303030"/>
<path d="M4.29521 10.4903C4.44809 10.4903 4.58459 10.3823 4.61462 10.2266C4.85709 8.98397 5.9701 8.08252 7.26035 8.08252L11.2531 8.08241C12.543 8.08241 13.656 8.9845 13.8991 10.2268C13.9337 10.4032 14.1051 10.5182 14.2814 10.4839C14.458 10.4493 14.5734 10.2779 14.5388 10.1014C14.2361 8.55403 12.8539 7.43066 11.2531 7.43066H7.26068C5.65924 7.43066 4.27753 8.55406 3.97527 10.1018C3.94101 10.2785 4.05613 10.4496 4.23269 10.4841C4.25364 10.4883 4.27448 10.4903 4.29543 10.4903L4.29521 10.4903Z" fill="#303030"/>
<path d="M7.25861 15.6433H11.2513C12.8524 15.6433 14.2345 14.5301 14.5367 12.996C14.5716 12.8193 14.4565 12.6482 14.28 12.6131C14.1033 12.5788 13.9322 12.6933 13.8974 12.8698C13.6548 14.0992 12.5418 14.9916 11.2512 14.9916H7.25879C5.9679 14.9916 4.85521 14.0995 4.61307 12.8699C4.57815 12.6933 4.40541 12.5783 4.23017 12.6132C4.0535 12.6481 3.9385 12.8195 3.97341 12.9961C4.27544 14.5301 5.65734 15.6433 7.25853 15.6433H7.25861Z" fill="#303030"/>
<path d="M4.40569 13.2629H14.1055C15.0425 13.2629 15.8047 12.4999 15.8047 11.562C15.8047 10.6244 15.0424 9.86182 14.1055 9.86182H4.40569C3.46868 9.86182 2.70615 10.6245 2.70615 11.562C2.70647 12.5 3.46868 13.2629 4.40569 13.2629ZM14.1055 10.5139C14.6829 10.5139 15.1529 10.9842 15.1529 11.5623C15.1529 12.1405 14.6829 12.6114 14.1055 12.6114H4.40569C3.82823 12.6114 3.35792 12.1408 3.35792 11.5623C3.35792 10.9845 3.82789 10.5139 4.40569 10.5139H14.1055Z" fill="#303030"/>
<path d="M0.325707 3.08939H9.19164C9.37157 3.08939 9.51758 2.94338 9.51758 2.76344C9.51758 2.5835 9.37157 2.4375 9.19164 2.4375H0.325707C0.145442 2.4375 -0.000235558 2.5835 -0.000235558 2.76344C-0.000235558 2.94338 0.145439 3.08939 0.325707 3.08939Z" fill="#303030"/>
<path d="M6.32674 3.08944C6.4268 3.08944 6.52523 3.04383 6.58939 2.95708L8.38934 0.519658C8.49627 0.374965 8.46561 0.170921 8.32092 0.0640708C8.17623 -0.0435226 7.97218 -0.012205 7.86533 0.132489L6.06508 2.56991C5.95814 2.7146 5.98913 2.91864 6.13382 3.02549C6.19187 3.06881 6.25964 3.08944 6.32675 3.08944H6.32674Z" fill="#303030"/>
</svg>
