<svg width="13" height="13" viewBox="0 0 13 13" fill="none" xmlns="http://www.w3.org/2000/svg">
<path fill-rule="evenodd" clip-rule="evenodd" d="M6.5 0C2.91409 0 0 2.91409 0 6.5C0 10.0859 2.91409 13 6.5 13C10.0859 13 13 10.0859 13 6.5C13 2.91409 10.0859 0 6.5 0ZM6.5 0.65C9.73468 0.65 12.35 3.26532 12.35 6.5C12.35 9.73468 9.73468 12.35 6.5 12.35C3.26532 12.35 0.65 9.73468 0.65 6.5C0.65 3.26532 3.26532 0.65 6.5 0.65Z" fill="#303030"/>
<path fill-rule="evenodd" clip-rule="evenodd" d="M3.06985 5.48926C2.51524 5.48926 2.05859 5.94574 2.05859 6.50036C2.05859 7.05497 2.51536 7.51162 3.06985 7.51162C3.62447 7.51162 4.08095 7.05485 4.08095 6.50036C4.08095 5.94574 3.62447 5.48926 3.06985 5.48926ZM3.06985 6.13926C3.27316 6.13926 3.43095 6.29704 3.43095 6.50036C3.43095 6.70367 3.27317 6.86162 3.06985 6.86162C2.86655 6.86162 2.70859 6.70356 2.70859 6.50036C2.70859 6.29705 2.86665 6.13926 3.06985 6.13926Z" fill="#303030"/>
<path fill-rule="evenodd" clip-rule="evenodd" d="M6.49954 5.48926C5.94493 5.48926 5.48828 5.94574 5.48828 6.50036C5.48828 7.05497 5.94505 7.51162 6.49954 7.51162C7.05415 7.51162 7.51064 7.05485 7.51064 6.50036C7.51064 5.94574 7.05415 5.48926 6.49954 5.48926ZM6.49954 6.13926C6.70285 6.13926 6.86064 6.29704 6.86064 6.50036C6.86064 6.70367 6.70286 6.86162 6.49954 6.86162C6.29623 6.86162 6.13828 6.70356 6.13828 6.50036C6.13828 6.29705 6.29634 6.13926 6.49954 6.13926Z" fill="#303030"/>
<path fill-rule="evenodd" clip-rule="evenodd" d="M9.93102 5.48926C9.37641 5.48926 8.91992 5.94602 8.91992 6.50052C8.91992 7.05513 9.37641 7.51162 9.93102 7.51162C10.4856 7.51162 10.9421 7.05513 10.9421 6.50052C10.9421 5.94591 10.4856 5.48926 9.93102 5.48926ZM9.93102 6.13926C10.1343 6.13926 10.2921 6.29731 10.2921 6.50052C10.2921 6.70382 10.1343 6.86162 9.93102 6.86162C9.72771 6.86162 9.56992 6.70383 9.56992 6.50052C9.56992 6.29721 9.72771 6.13926 9.93102 6.13926Z" fill="#303030"/>
</svg>
